<?xml version="1.0" encoding="UTF-8" standalone="no"?>
<!-- Created with Inkscape (http://www.inkscape.org/) -->

<svg
   xmlns:dc="http://purl.org/dc/elements/1.1/"
   xmlns:cc="http://creativecommons.org/ns#"
   xmlns:rdf="http://www.w3.org/1999/02/22-rdf-syntax-ns#"
   xmlns:svg="http://www.w3.org/2000/svg"
   xmlns="http://www.w3.org/2000/svg"
   xmlns:xlink="http://www.w3.org/1999/xlink"
   xmlns:sodipodi="http://sodipodi.sourceforge.net/DTD/sodipodi-0.dtd"
   xmlns:inkscape="http://www.inkscape.org/namespaces/inkscape"
   width="128"
   height="128"
   viewBox="0 0 33.866666 33.866668"
   version="1.1"
   id="svg8"
   inkscape:version="0.92.3 (2405546, 2018-03-11)"
   sodipodi:docname="delete.svg">
  <defs
     id="defs2">
    <linearGradient
       inkscape:collect="always"
       id="linearGradient953">
      <stop
         style="stop-color:#97abb0;stop-opacity:1;"
         offset="0"
         id="stop949" />
      <stop
         style="stop-color:#97abb0;stop-opacity:0;"
         offset="1"
         id="stop951" />
    </linearGradient>
    <linearGradient
       inkscape:collect="always"
       xlink:href="#linearGradient953"
       id="linearGradient955"
       x1="7.7508958"
       y1="286.07529"
       x2="27.796185"
       y2="286.07529"
       gradientUnits="userSpaceOnUse" />
    <linearGradient
       gradientTransform="matrix(3.7795275,0,0,3.7795275,-29.294724,-1045.748)"
       inkscape:collect="always"
       xlink:href="#linearGradient953"
       id="linearGradient955-0"
       x1="7.750896"
       y1="286.07529"
       x2="27.796185"
       y2="286.07529"
       gradientUnits="userSpaceOnUse" />
    <linearGradient
       gradientTransform="matrix(3.7795275,0,0,3.7795275,-17.930206,-1017.4637)"
       inkscape:collect="always"
       xlink:href="#linearGradient953"
       id="linearGradient955-8"
       x1="7.750896"
       y1="286.07529"
       x2="27.796185"
       y2="286.07529"
       gradientUnits="userSpaceOnUse" />
    <linearGradient
       inkscape:collect="always"
       xlink:href="#linearGradient953"
       id="linearGradient1037"
       gradientUnits="userSpaceOnUse"
       x1="44.193359"
       y1="19.660156"
       x2="83.842659"
       y2="14.357839" />
    <linearGradient
       inkscape:collect="always"
       xlink:href="#linearGradient953"
       id="linearGradient1039"
       gradientUnits="userSpaceOnUse"
       x1="7.7508958"
       y1="286.07529"
       x2="27.796185"
       y2="286.07529"
       gradientTransform="translate(-0.13363477,0.06681738)" />
  </defs>
  <sodipodi:namedview
     id="base"
     pagecolor="#dddddd"
     bordercolor="#666666"
     borderopacity="1.0"
     inkscape:pageopacity="0"
     inkscape:pageshadow="2"
     inkscape:zoom="3.959798"
     inkscape:cx="5.026438"
     inkscape:cy="42.540416"
     inkscape:document-units="px"
     inkscape:current-layer="layer1"
     showgrid="false"
     units="px"
     inkscape:window-width="2256"
     inkscape:window-height="1410"
     inkscape:window-x="-11"
     inkscape:window-y="-11"
     inkscape:window-maximized="1" />
  <metadata
     id="metadata5">
    <rdf:RDF>
      <cc:Work
         rdf:about="">
        <dc:format>image/svg+xml</dc:format>
        <dc:type
           rdf:resource="http://purl.org/dc/dcmitype/StillImage" />
        <dc:title></dc:title>
      </cc:Work>
    </rdf:RDF>
  </metadata>
  <g
     inkscape:label="Layer 1"
     inkscape:groupmode="layer"
     id="layer1"
     transform="translate(0,-263.13333)">
    <rect
       style="opacity:1;vector-effect:none;fill:#6f8a91;fill-opacity:1;stroke:none;stroke-width:0.25885645;stroke-linecap:butt;stroke-linejoin:miter;stroke-miterlimit:4;stroke-dasharray:none;stroke-dashoffset:0;stroke-opacity:1;marker:none"
       id="rect876"
       width="25.390606"
       height="6.4144692"
       x="4.7440338"
       y="269.20395"
       ry="0.53454036" />
    <path
       style="opacity:1;vector-effect:none;fill:#6f8a91;fill-opacity:1;stroke:none;stroke-width:0.26458332;stroke-linecap:butt;stroke-linejoin:miter;stroke-miterlimit:4;stroke-dasharray:none;stroke-dashoffset:0;stroke-opacity:1;marker:none"
       d="m 7.617261,276.75431 v 18.24126 c 0,0.29614 0.238199,0.53434 0.5343345,0.53434 H 27.127697 c 0.296138,0 0.534853,-0.2382 0.534853,-0.53434 v -18.24126 z"
       id="rect878"
       inkscape:connector-curvature="0" />
    <path
       inkscape:connector-curvature="0"
       id="path939"
       d="m 7.617261,276.75431 v 18.24126 c 0,0.29614 0.238199,0.53434 0.5343345,0.53434 H 27.127697 c 0.296138,0 0.534853,-0.2382 0.534853,-0.53434 v -18.24126 z"
       style="opacity:1;vector-effect:none;fill:url(#linearGradient1039);fill-opacity:1;stroke:none;stroke-width:0.26458332;stroke-linecap:butt;stroke-linejoin:miter;stroke-miterlimit:4;stroke-dasharray:none;stroke-dashoffset:0;stroke-opacity:1;marker:none" />
    <path
       style="opacity:1;vector-effect:none;fill:#6f8a91;fill-opacity:1;stroke:none;stroke-width:0.99999994;stroke-linecap:butt;stroke-linejoin:miter;stroke-miterlimit:4;stroke-dasharray:none;stroke-dashoffset:0;stroke-opacity:1;marker:none"
       d="M 46.214844 6.5292969 C 45.095592 6.5292969 44.193359 7.4295764 44.193359 8.5488281 L 44.193359 19.660156 L 51.265625 19.660156 L 51.265625 13.984375 C 51.265625 13.212092 51.887873 12.589844 52.660156 12.589844 L 80.539062 12.589844 C 81.311346 12.589844 81.933594 13.212092 81.933594 13.984375 L 81.933594 19.660156 L 88.640625 19.660156 L 88.640625 8.5488281 C 88.640625 7.4295764 87.740345 6.5292969 86.621094 6.5292969 L 46.214844 6.5292969 z "
       transform="matrix(0.26458334,0,0,0.26458334,0,263.13333)"
       id="rect883" />
    <path
       style="opacity:1;vector-effect:none;fill:#5e757b;fill-opacity:1;stroke:none;stroke-width:0.26458332;stroke-linecap:butt;stroke-linejoin:miter;stroke-miterlimit:4;stroke-dasharray:none;stroke-dashoffset:0;stroke-opacity:1;marker:none"
       d="m 10.490523,279.76089 c -0.296135,0 -0.534851,0.23872 -0.534851,0.53486 v 15.23421 h 3.875733 v -15.23421 c 0,-0.29614 -0.238716,-0.53486 -0.534851,-0.53486 z"
       id="rect891"
       inkscape:connector-curvature="0" />
    <path
       style="opacity:1;vector-effect:none;fill:#5e757b;fill-opacity:1;stroke:none;stroke-width:0.26458332;stroke-linecap:butt;stroke-linejoin:miter;stroke-miterlimit:4;stroke-dasharray:none;stroke-dashoffset:0;stroke-opacity:1;marker:none"
       d="m 16.311357,279.76089 c -0.296136,0 -0.534852,0.23872 -0.534852,0.53486 v 15.23421 h 3.875733 v -15.23421 c 0,-0.29614 -0.238716,-0.53486 -0.534851,-0.53486 z"
       id="rect893"
       inkscape:connector-curvature="0" />
    <path
       style="opacity:1;vector-effect:none;fill:#5e757b;fill-opacity:1;stroke:none;stroke-width:0.26458332;stroke-linecap:butt;stroke-linejoin:miter;stroke-miterlimit:4;stroke-dasharray:none;stroke-dashoffset:0;stroke-opacity:1;marker:none"
       d="m 22.13219,279.76089 c -0.296135,0 -0.534851,0.23872 -0.534851,0.53486 v 15.23421 h 3.875733 v -15.23421 c 0,-0.29614 -0.238716,-0.53486 -0.534851,-0.53486 z"
       id="rect895"
       inkscape:connector-curvature="0" />
    <rect
       ry="0.53454036"
       y="269.20395"
       x="4.7440338"
       height="6.4144692"
       width="25.390606"
       id="rect957"
       style="opacity:1;vector-effect:none;fill:url(#linearGradient955);fill-opacity:1;stroke:none;stroke-width:0.26458332;stroke-linecap:butt;stroke-linejoin:miter;stroke-miterlimit:4;stroke-dasharray:none;stroke-dashoffset:0;stroke-opacity:1;marker:none;font-variant-east_asian:normal" />
    <path
       id="path982"
       d="M 46.214844 6.5292969 C 45.095592 6.5292969 44.193359 7.4295764 44.193359 8.5488281 L 44.193359 19.660156 L 51.265625 19.660156 L 51.265625 13.984375 C 51.265625 13.212092 51.887873 12.589844 52.660156 12.589844 L 80.539062 12.589844 C 81.311346 12.589844 81.933594 13.212092 81.933594 13.984375 L 81.933594 19.660156 L 88.640625 19.660156 L 88.640625 8.5488281 C 88.640625 7.4295764 87.740345 6.5292969 86.621094 6.5292969 L 46.214844 6.5292969 z "
       style="opacity:1;vector-effect:none;fill:url(#linearGradient955);fill-opacity:1;stroke:none;stroke-width:0.99999992;stroke-linecap:butt;stroke-linejoin:miter;stroke-miterlimit:4;stroke-dasharray:none;stroke-dashoffset:0;stroke-opacity:1;marker:none;font-variant-east_asian:normal"
       transform="matrix(0.26458334,0,0,0.26458334,0,263.13333)" />
    <path
       id="path1012"
       transform="matrix(0.26458334,0,0,0.26458334,0,263.13333)"
       d="M 46.214844 6.5292969 C 45.095592 6.5292969 44.193359 7.4295764 44.193359 8.5488281 L 44.193359 19.660156 L 51.265625 19.660156 L 51.265625 13.984375 C 51.265625 13.212092 51.887873 12.589844 52.660156 12.589844 L 80.539062 12.589844 C 81.311346 12.589844 81.933594 13.212092 81.933594 13.984375 L 81.933594 19.660156 L 88.640625 19.660156 L 88.640625 8.5488281 C 88.640625 7.4295764 87.740345 6.5292969 86.621094 6.5292969 L 46.214844 6.5292969 z "
       style="opacity:1;vector-effect:none;fill:url(#linearGradient1037);fill-opacity:1;stroke:none;stroke-width:0.99999992;stroke-linecap:butt;stroke-linejoin:miter;stroke-miterlimit:4;stroke-dasharray:none;stroke-dashoffset:0;stroke-opacity:1;marker:none;font-variant-east_asian:normal" />
  </g>
</svg>
