<?xml version="1.0" encoding="UTF-8" standalone="no"?>
<!-- Created with Inkscape (http://www.inkscape.org/) -->

<svg
   xmlns:dc="http://purl.org/dc/elements/1.1/"
   xmlns:cc="http://creativecommons.org/ns#"
   xmlns:rdf="http://www.w3.org/1999/02/22-rdf-syntax-ns#"
   xmlns:svg="http://www.w3.org/2000/svg"
   xmlns="http://www.w3.org/2000/svg"
   xmlns:xlink="http://www.w3.org/1999/xlink"
   xmlns:sodipodi="http://sodipodi.sourceforge.net/DTD/sodipodi-0.dtd"
   xmlns:inkscape="http://www.inkscape.org/namespaces/inkscape"
   width="128"
   height="128"
   viewBox="0 0 33.866666 33.866668"
   version="1.1"
   id="svg8"
   inkscape:version="0.92.3 (2405546, 2018-03-11)"
   sodipodi:docname="gear.svg">
  <defs
     id="defs2">
    <linearGradient
       inkscape:collect="always"
       id="linearGradient956">
      <stop
         style="stop-color:#6f8a91;stop-opacity:1;"
         offset="0"
         id="stop952" />
      <stop
         style="stop-color:#6f8a91;stop-opacity:0;"
         offset="1"
         id="stop954" />
    </linearGradient>
    <linearGradient
       inkscape:collect="always"
       xlink:href="#linearGradient956"
       id="linearGradient958"
       x1="0.49514906"
       y1="280.16884"
       x2="33.353094"
       y2="280.16884"
       gradientUnits="userSpaceOnUse" />
  </defs>
  <sodipodi:namedview
     id="base"
     pagecolor="#dddddd"
     bordercolor="#666666"
     borderopacity="1.0"
     inkscape:pageopacity="0"
     inkscape:pageshadow="2"
     inkscape:zoom="3.959798"
     inkscape:cx="51.943032"
     inkscape:cy="10.312109"
     inkscape:document-units="px"
     inkscape:current-layer="layer1"
     showgrid="false"
     units="px"
     inkscape:window-width="2256"
     inkscape:window-height="1410"
     inkscape:window-x="-11"
     inkscape:window-y="1609"
     inkscape:window-maximized="1" />
  <metadata
     id="metadata5">
    <rdf:RDF>
      <cc:Work
         rdf:about="">
        <dc:format>image/svg+xml</dc:format>
        <dc:type
           rdf:resource="http://purl.org/dc/dcmitype/StillImage" />
        <dc:title></dc:title>
      </cc:Work>
    </rdf:RDF>
  </metadata>
  <g
     inkscape:label="Layer 1"
     inkscape:groupmode="layer"
     id="layer1"
     transform="translate(0,-263.13333)">
    <path
       style="fill:#b7c4c8;fill-opacity:1;stroke-width:0.02738162"
       d="m 13.96691,296.52467 c 0,-0.069 -0.583228,-3.45822 -0.60363,-3.50779 -0.01412,-0.0343 -0.04118,-0.0672 -0.06014,-0.073 -0.01896,-0.006 -0.182324,-0.0556 -0.363043,-0.11051 -0.677328,-0.20579 -1.3848,-0.49337 -2.117855,-0.86088 l -0.338049,-0.16949 -0.141129,0.0988 c -0.07762,0.0543 -0.7633759,0.54171 -1.5238999,1.08309 -0.760525,0.54138 -1.395202,0.98433 -1.410395,0.98434 -0.01519,0 -0.974498,-0.94717 -2.131789,-2.10482 -1.925052,-1.92566 -2.10156,-2.1097 -2.073557,-2.16202 0.01684,-0.0315 0.475798,-0.68303 1.019917,-1.44794 0.54412,-0.76491 1.019454,-1.43615 1.0563,-1.49166 l 0.06699,-0.10091 -0.274809,-0.55624 c -0.360863,-0.73044 -0.493328,-1.04778 -0.709136,-1.69887 -0.119605,-0.36084 -0.193636,-0.54468 -0.222956,-0.55366 -0.02414,-0.007 -0.826326,-0.1432 -1.782629,-0.3018 -0.956303,-0.15859 -1.76645604,-0.29474 -1.80034104,-0.30253 l -0.06161,-0.0142 v -3.00841 -3.00841 l 0.08899,-0.0162 c 0.09385,-0.0171 2.93682904,-0.43832 3.26525804,-0.48382 0.36098,-0.05 0.331646,-0.0289 0.410516,-0.29525 0.206979,-0.69894 0.515278,-1.47419 0.863301,-2.17087 0.121739,-0.2437 0.215478,-0.45838 0.208309,-0.47706 -0.0072,-0.0187 -0.488912,-0.68889 -1.070539,-1.48935 -0.581627,-0.80046 -1.063262,-1.47038 -1.0703,-1.48872 -0.01969,-0.0513 4.252738,-4.2445 4.309201,-4.22929 0.02532,0.007 0.703507,0.47626 1.50709,1.0432 0.803583,0.56694 1.4724679,1.03081 1.4864109,1.03081 0.01394,0 0.151218,-0.0671 0.305055,-0.14919 0.61918,-0.33025 1.535938,-0.71326 2.154948,-0.90032 0.172971,-0.0523 0.324037,-0.11167 0.335701,-0.13201 0.01167,-0.0203 0.150603,-0.8194 0.308751,-1.7757 0.158148,-0.9563 0.294541,-1.77262 0.303097,-1.81403 l 0.01556,-0.0753 h 3.007627 3.007626 l 0.01557,0.0753 c 0.0086,0.0414 0.145549,0.84253 0.304408,1.78026 0.158859,0.93773 0.295241,1.72165 0.303071,1.74206 0.0078,0.0204 0.109018,0.065 0.224864,0.099 0.570166,0.16764 1.400838,0.50516 2.125398,0.86361 0.226968,0.11229 0.431151,0.20415 0.453741,0.20414 0.02259,0 0.718767,-0.46791 1.547061,-1.03979 0.828294,-0.57187 1.514632,-1.04009 1.525195,-1.04049 0.03626,-10e-4 4.224945,4.27219 4.221988,4.30752 -0.0016,0.0194 -0.480071,0.69218 -1.063204,1.49501 -0.583135,0.80283 -1.066068,1.47487 -1.073181,1.49341 -0.0071,0.0185 0.06666,0.18027 0.163939,0.3594 0.333475,0.61405 0.655913,1.39438 0.874604,2.11662 0.05096,0.1683 0.103859,0.31679 0.117549,0.32997 0.01369,0.0132 0.813484,0.15449 1.777317,0.31402 0.963833,0.15954 1.786308,0.29709 1.827723,0.30568 l 0.0753,0.0156 v 3.00929 3.00928 l -0.06161,0.0132 c -0.03388,0.007 -0.842888,0.13021 -1.797783,0.27315 -0.954899,0.14294 -1.744878,0.26967 -1.75551,0.28162 -0.01063,0.012 -0.07155,0.18807 -0.135377,0.39138 -0.179336,0.57126 -0.413616,1.14418 -0.72736,1.77872 -0.157718,0.31899 -0.286762,0.59816 -0.286762,0.62039 0,0.0222 0.480547,0.71617 1.067883,1.5421 0.587335,0.82592 1.067883,1.51848 1.067883,1.539 0,0.0205 -0.941334,0.97859 -2.091852,2.12903 -1.64485,1.64475 -2.103264,2.08874 -2.145258,2.07776 -0.02937,-0.008 -0.716652,-0.48556 -1.527287,-1.06194 -0.810635,-0.57639 -1.493885,-1.0532 -1.518335,-1.0596 -0.02445,-0.006 -0.290302,0.10974 -0.590784,0.25808 -0.605818,0.29908 -1.218642,0.55079 -1.819575,0.74737 -0.370033,0.12105 -0.39845,0.13523 -0.417889,0.20846 -0.01796,0.0677 -0.595233,3.51564 -0.595233,3.55525 0,0.008 -1.361551,0.0145 -3.025668,0.0145 -1.664118,0 -3.025669,-0.008 -3.025669,-0.0184 z m 3.915571,-10.07086 c 0.88264,-0.13678 1.748022,-0.47007 2.502402,-0.96379 0.399481,-0.26144 0.620892,-0.44399 1.004413,-0.8281 0.515452,-0.51626 0.893795,-1.04702 1.202164,-1.68648 1.075978,-2.23122 0.746414,-4.87532 -0.845139,-6.78053 -1.312614,-1.57131 -3.387746,-2.4344 -5.385609,-2.23998 -3.836244,0.3733 -6.4594269,4.04469 -5.552555,7.77132 0.273545,1.12409 0.829934,2.11353 1.650796,2.93567 0.390524,0.39112 0.611572,0.57223 1.034527,0.84757 0.863803,0.56235 1.702313,0.85174 2.883012,0.995 0.215271,0.0261 1.230955,-0.008 1.505989,-0.0507 z"
       id="path948"
       inkscape:connector-curvature="0" />
    <path
       inkscape:connector-curvature="0"
       id="path950"
       d="m 13.96691,296.52467 c 0,-0.069 -0.583228,-3.45822 -0.60363,-3.50779 -0.01412,-0.0343 -0.04118,-0.0672 -0.06014,-0.073 -0.01896,-0.006 -0.182324,-0.0556 -0.363043,-0.11051 -0.677328,-0.20579 -1.3848,-0.49337 -2.117855,-0.86088 l -0.338049,-0.16949 -0.141129,0.0988 c -0.07762,0.0543 -0.7633759,0.54171 -1.5238999,1.08309 -0.760525,0.54138 -1.395202,0.98433 -1.410395,0.98434 -0.01519,0 -0.974498,-0.94717 -2.131789,-2.10482 -1.925052,-1.92566 -2.10156,-2.1097 -2.073557,-2.16202 0.01684,-0.0315 0.475798,-0.68303 1.019917,-1.44794 0.54412,-0.76491 1.019454,-1.43615 1.0563,-1.49166 l 0.06699,-0.10091 -0.274809,-0.55624 c -0.360863,-0.73044 -0.493328,-1.04778 -0.709136,-1.69887 -0.119605,-0.36084 -0.193636,-0.54468 -0.222956,-0.55366 -0.02414,-0.007 -0.826326,-0.1432 -1.782629,-0.3018 -0.956303,-0.15859 -1.76645604,-0.29474 -1.80034104,-0.30253 l -0.06161,-0.0142 v -3.00841 -3.00841 l 0.08899,-0.0162 c 0.09385,-0.0171 2.93682904,-0.43832 3.26525804,-0.48382 0.36098,-0.05 0.331646,-0.0289 0.410516,-0.29525 0.206979,-0.69894 0.515278,-1.47419 0.863301,-2.17087 0.121739,-0.2437 0.215478,-0.45838 0.208309,-0.47706 -0.0072,-0.0187 -0.488912,-0.68889 -1.070539,-1.48935 -0.581627,-0.80046 -1.063262,-1.47038 -1.0703,-1.48872 -0.01969,-0.0513 4.252738,-4.2445 4.309201,-4.22929 0.02532,0.007 0.703507,0.47626 1.50709,1.0432 0.803583,0.56694 1.4724679,1.03081 1.4864109,1.03081 0.01394,0 0.151218,-0.0671 0.305055,-0.14919 0.61918,-0.33025 1.535938,-0.71326 2.154948,-0.90032 0.172971,-0.0523 0.324037,-0.11167 0.335701,-0.13201 0.01167,-0.0203 0.150603,-0.8194 0.308751,-1.7757 0.158148,-0.9563 0.294541,-1.77262 0.303097,-1.81403 l 0.01556,-0.0753 h 3.007627 3.007626 l 0.01557,0.0753 c 0.0086,0.0414 0.145549,0.84253 0.304408,1.78026 0.158859,0.93773 0.295241,1.72165 0.303071,1.74206 0.0078,0.0204 0.109018,0.065 0.224864,0.099 0.570166,0.16764 1.400838,0.50516 2.125398,0.86361 0.226968,0.11229 0.431151,0.20415 0.453741,0.20414 0.02259,0 0.718767,-0.46791 1.547061,-1.03979 0.828294,-0.57187 1.514632,-1.04009 1.525195,-1.04049 0.03626,-10e-4 4.224945,4.27219 4.221988,4.30752 -0.0016,0.0194 -0.480071,0.69218 -1.063204,1.49501 -0.583135,0.80283 -1.066068,1.47487 -1.073181,1.49341 -0.0071,0.0185 0.06666,0.18027 0.163939,0.3594 0.333475,0.61405 0.655913,1.39438 0.874604,2.11662 0.05096,0.1683 0.103859,0.31679 0.117549,0.32997 0.01369,0.0132 0.813484,0.15449 1.777317,0.31402 0.963833,0.15954 1.786308,0.29709 1.827723,0.30568 l 0.0753,0.0156 v 3.00929 3.00928 l -0.06161,0.0132 c -0.03388,0.007 -0.842888,0.13021 -1.797783,0.27315 -0.954899,0.14294 -1.744878,0.26967 -1.75551,0.28162 -0.01063,0.012 -0.07155,0.18807 -0.135377,0.39138 -0.179336,0.57126 -0.413616,1.14418 -0.72736,1.77872 -0.157718,0.31899 -0.286762,0.59816 -0.286762,0.62039 0,0.0222 0.480547,0.71617 1.067883,1.5421 0.587335,0.82592 1.067883,1.51848 1.067883,1.539 0,0.0205 -0.941334,0.97859 -2.091852,2.12903 -1.64485,1.64475 -2.103264,2.08874 -2.145258,2.07776 -0.02937,-0.008 -0.716652,-0.48556 -1.527287,-1.06194 -0.810635,-0.57639 -1.493885,-1.0532 -1.518335,-1.0596 -0.02445,-0.006 -0.290302,0.10974 -0.590784,0.25808 -0.605818,0.29908 -1.218642,0.55079 -1.819575,0.74737 -0.370033,0.12105 -0.39845,0.13523 -0.417889,0.20846 -0.01796,0.0677 -0.595233,3.51564 -0.595233,3.55525 0,0.008 -1.361551,0.0145 -3.025668,0.0145 -1.664118,0 -3.025669,-0.008 -3.025669,-0.0184 z m 3.915571,-10.07086 c 0.88264,-0.13678 1.748022,-0.47007 2.502402,-0.96379 0.399481,-0.26144 0.620892,-0.44399 1.004413,-0.8281 0.515452,-0.51626 0.893795,-1.04702 1.202164,-1.68648 1.075978,-2.23122 0.746414,-4.87532 -0.845139,-6.78053 -1.312614,-1.57131 -3.387746,-2.4344 -5.385609,-2.23998 -3.836244,0.3733 -6.4594269,4.04469 -5.552555,7.77132 0.273545,1.12409 0.829934,2.11353 1.650796,2.93567 0.390524,0.39112 0.611572,0.57223 1.034527,0.84757 0.863803,0.56235 1.702313,0.85174 2.883012,0.995 0.215271,0.0261 1.230955,-0.008 1.505989,-0.0507 z"
       style="fill:url(#linearGradient958);fill-opacity:1;stroke-width:0.02738162" />
  </g>
</svg>
