<?xml version="1.0" encoding="UTF-8" standalone="no"?>
<!-- Created with Inkscape (http://www.inkscape.org/) -->

<svg
   xmlns:dc="http://purl.org/dc/elements/1.1/"
   xmlns:cc="http://creativecommons.org/ns#"
   xmlns:rdf="http://www.w3.org/1999/02/22-rdf-syntax-ns#"
   xmlns:svg="http://www.w3.org/2000/svg"
   xmlns="http://www.w3.org/2000/svg"
   xmlns:xlink="http://www.w3.org/1999/xlink"
   xmlns:sodipodi="http://sodipodi.sourceforge.net/DTD/sodipodi-0.dtd"
   xmlns:inkscape="http://www.inkscape.org/namespaces/inkscape"
   width="128"
   height="128"
   viewBox="0 0 33.866666 33.866668"
   version="1.1"
   id="svg8"
   inkscape:version="0.92.3 (2405546, 2018-03-11)"
   sodipodi:docname="load.svg">
  <defs
     id="defs2">
    <linearGradient
       inkscape:collect="always"
       id="linearGradient835">
      <stop
         style="stop-color:#88aa00;stop-opacity:1;"
         offset="0"
         id="stop831" />
      <stop
         style="stop-color:#88aa00;stop-opacity:0;"
         offset="1"
         id="stop833" />
    </linearGradient>
    <linearGradient
       inkscape:collect="always"
       id="linearGradient825">
      <stop
         style="stop-color:#d4aa00;stop-opacity:1;"
         offset="0"
         id="stop821" />
      <stop
         style="stop-color:#d4aa00;stop-opacity:0;"
         offset="1"
         id="stop823" />
    </linearGradient>
    <linearGradient
       inkscape:collect="always"
       xlink:href="#linearGradient825"
       id="linearGradient827"
       x1="1.7103423"
       y1="282.1644"
       x2="32.118528"
       y2="282.1644"
       gradientUnits="userSpaceOnUse" />
    <linearGradient
       inkscape:collect="always"
       xlink:href="#linearGradient835"
       id="linearGradient837"
       x1="14.88281"
       y1="287.26701"
       x2="33.02589"
       y2="287.26701"
       gradientUnits="userSpaceOnUse" />
  </defs>
  <sodipodi:namedview
     id="base"
     pagecolor="#ffffff"
     bordercolor="#666666"
     borderopacity="1.0"
     inkscape:pageopacity="0.0"
     inkscape:pageshadow="2"
     inkscape:zoom="2.8"
     inkscape:cx="-84.719433"
     inkscape:cy="46.545274"
     inkscape:document-units="px"
     inkscape:current-layer="layer1"
     showgrid="false"
     units="px"
     inkscape:window-width="2256"
     inkscape:window-height="1410"
     inkscape:window-x="-11"
     inkscape:window-y="-11"
     inkscape:window-maximized="1" />
  <metadata
     id="metadata5">
    <rdf:RDF>
      <cc:Work
         rdf:about="">
        <dc:format>image/svg+xml</dc:format>
        <dc:type
           rdf:resource="http://purl.org/dc/dcmitype/StillImage" />
        <dc:title />
      </cc:Work>
    </rdf:RDF>
  </metadata>
  <g
     inkscape:label="Layer 1"
     inkscape:groupmode="layer"
     id="layer1"
     transform="translate(0,-263.13332)">
    <rect
       style="opacity:1;vector-effect:none;fill:#957700;fill-opacity:1;stroke:none;stroke-width:0.26458332;stroke-linecap:butt;stroke-linejoin:miter;stroke-miterlimit:4;stroke-dasharray:none;stroke-dashoffset:0;stroke-opacity:1;marker:none"
       id="rect876"
       width="30.143602"
       height="25.607887"
       x="1.842634"
       y="266.95087"
       ry="2.6681378" />
    <rect
       style="opacity:1;vector-effect:none;fill:#f2f2f2;fill-opacity:1;stroke:none;stroke-width:0.22267158;stroke-linecap:butt;stroke-linejoin:miter;stroke-miterlimit:4;stroke-dasharray:none;stroke-dashoffset:0;stroke-opacity:1;marker:none"
       id="rect876-1"
       width="23.854824"
       height="22.919092"
       x="6.4035282"
       y="268.43149"
       ry="2.3879867" />
    <rect
       ry="2.1687188"
       y="271.75708"
       x="1.8296633"
       height="20.814632"
       width="30.169544"
       id="rect893"
       style="opacity:1;vector-effect:none;fill:#ffcc00;fill-opacity:1;stroke:none;stroke-width:0.23864193;stroke-linecap:butt;stroke-linejoin:miter;stroke-miterlimit:4;stroke-dasharray:none;stroke-dashoffset:0;stroke-opacity:1;marker:none" />
    <rect
       style="opacity:1;vector-effect:none;fill:url(#linearGradient827);fill-opacity:1;stroke:none;stroke-width:0.23864193;stroke-linecap:butt;stroke-linejoin:miter;stroke-miterlimit:4;stroke-dasharray:none;stroke-dashoffset:0;stroke-opacity:1;marker:none"
       id="rect819"
       width="30.169544"
       height="20.814632"
       x="1.8296633"
       y="271.75708"
       ry="2.1687188" />
    <path
       style="opacity:1;vector-effect:none;fill:#aad400;fill-opacity:1;stroke:none;stroke-width:0.26458332;stroke-linecap:butt;stroke-linejoin:miter;stroke-miterlimit:4;stroke-dasharray:none;stroke-dashoffset:0;stroke-opacity:1;marker:none"
       d="m 23.954094,278.19545 c -0.944521,0 -1.779605,0.44438 -2.314588,1.1343 l -5.681823,5.66684 c -0.150842,0.1232 -0.289426,0.26124 -0.412895,0.41186 l -0.04806,0.0481 h 0.0124 c -0.391429,0.49792 -0.626318,1.1254 -0.626318,1.81074 0,1.62284 1.306696,2.92902 2.929537,2.92902 h 3.212724 v 3.21272 c 0,1.62284 1.306179,2.92954 2.92902,2.92954 1.622841,0 2.929537,-1.3067 2.929537,-2.92954 v -3.21272 h 3.212724 c 1.62284,0 2.929538,-1.30618 2.929538,-2.92902 0,-0.75086 -0.282332,-1.4319 -0.743625,-1.94924 h 0.02687 l -5.786209,-5.60534 c -0.4972,-0.90545 -1.458948,-1.51722 -2.568836,-1.51722 z"
       id="rect819-9"
       inkscape:connector-curvature="0" />
    <path
       inkscape:connector-curvature="0"
       id="path829"
       d="m 23.954094,278.19545 c -0.944521,0 -1.779605,0.44438 -2.314588,1.1343 l -5.681823,5.66684 c -0.150842,0.1232 -0.289426,0.26124 -0.412895,0.41186 l -0.04806,0.0481 h 0.0124 c -0.391429,0.49792 -0.626318,1.1254 -0.626318,1.81074 0,1.62284 1.306696,2.92902 2.929537,2.92902 h 3.212724 v 3.21272 c 0,1.62284 1.306179,2.92954 2.92902,2.92954 1.622841,0 2.929537,-1.3067 2.929537,-2.92954 v -3.21272 h 3.212724 c 1.62284,0 2.929538,-1.30618 2.929538,-2.92902 0,-0.75086 -0.282332,-1.4319 -0.743625,-1.94924 h 0.02687 l -5.786209,-5.60534 c -0.4972,-0.90545 -1.458948,-1.51722 -2.568836,-1.51722 z"
       style="opacity:1;vector-effect:none;fill:url(#linearGradient837);fill-opacity:1;stroke:none;stroke-width:0.26458332;stroke-linecap:butt;stroke-linejoin:miter;stroke-miterlimit:4;stroke-dasharray:none;stroke-dashoffset:0;stroke-opacity:1;marker:none" />
  </g>
</svg>
